<?xml version="1.0" encoding="UTF-8" standalone="no"?>
<!DOCTYPE svg PUBLIC "-//W3C//DTD SVG 1.1//EN"
 "http://www.w3.org/Graphics/SVG/1.1/DTD/svg11.dtd">
<!-- Generated by graphviz version 2.40.1 (20161225.0304)
 -->
<!-- Title: dependencies Pages: 1 -->
<svg width="1692pt" height="284pt"
 viewBox="0.00 0.00 1692.00 284.00" xmlns="http://www.w3.org/2000/svg" xmlns:xlink="http://www.w3.org/1999/xlink">
<g id="graph0" class="graph" transform="scale(1 1) rotate(0) translate(4 280)">
<title>dependencies</title>
<polygon fill="#ffffff" stroke="transparent" points="-4,4 -4,-280 1688,-280 1688,4 -4,4"/>
<text text-anchor="start" x="821.0091" y="-42.4" font-family="sans-serif" font-weight="bold" font-size="14.00" fill="#000000">Legend</text>
<polygon fill="#ffffb3" stroke="transparent" points="608,-10 608,-30 628,-30 628,-10 608,-10"/>
<text text-anchor="start" x="631.629" y="-15.4" font-family="sans-serif" font-size="14.00" fill="#000000"> &#160;Declarations</text>
<polygon fill="#8dd3c7" stroke="transparent" points="721,-10 721,-30 741,-30 741,-10 721,-10"/>
<text text-anchor="start" x="744.7251" y="-15.4" font-family="sans-serif" font-size="14.00" fill="#000000"> &#160;Module</text>
<polygon fill="#80b1d3" stroke="transparent" points="807,-10 807,-30 827,-30 827,-10 807,-10"/>
<text text-anchor="start" x="830.7812" y="-15.4" font-family="sans-serif" font-size="14.00" fill="#000000"> &#160;Bootstrap</text>
<polygon fill="#fdb462" stroke="transparent" points="904,-10 904,-30 924,-30 924,-10 904,-10"/>
<text text-anchor="start" x="927.6732" y="-15.4" font-family="sans-serif" font-size="14.00" fill="#000000"> &#160;Providers</text>
<polygon fill="#fb8072" stroke="transparent" points="1000,-10 1000,-30 1020,-30 1020,-10 1000,-10"/>
<text text-anchor="start" x="1023.7258" y="-15.4" font-family="sans-serif" font-size="14.00" fill="#000000"> &#160;Exports</text>
<g id="clust1" class="cluster">
<title>cluster_NgxAmapModule</title>
<polygon fill="none" stroke="#000000" stroke-dasharray="1,5" points="8,-70 8,-268 1676,-268 1676,-70 8,-70"/>
</g>
<g id="clust2" class="cluster">
<title>cluster_NgxAmapModule_declarations</title>
<polygon fill="none" stroke="#000000" points="33,-78 33,-130 1652,-130 1652,-78 33,-78"/>
</g>
<g id="clust13" class="cluster">
<title>cluster_NgxAmapModule_exports</title>
<polygon fill="none" stroke="#000000" points="16,-208 16,-260 1668,-260 1668,-208 16,-208"/>
</g>
<!-- NgxAmapComponent -->
<g id="node1" class="node">
<title>NgxAmapComponent</title>
<polygon fill="#ffffb3" stroke="#000000" points="1643.6512,-122 1504.3488,-122 1504.3488,-86 1643.6512,-86 1643.6512,-122"/>
<text text-anchor="middle" x="1574" y="-99.8" font-family="Times,serif" font-size="14.00" fill="#000000">NgxAmapComponent</text>
</g>
<!-- NgxAmapModule -->
<g id="node10" class="node">
<title>NgxAmapModule</title>
<polygon fill="#8dd3c7" stroke="#000000" points="936.8683,-187 933.8683,-191 912.8683,-191 909.8683,-187 819.1317,-187 819.1317,-151 936.8683,-151 936.8683,-187"/>
<text text-anchor="middle" x="878" y="-164.8" font-family="Times,serif" font-size="14.00" fill="#000000">NgxAmapModule</text>
</g>
<!-- NgxAmapComponent&#45;&gt;NgxAmapModule -->
<g id="edge1" class="edge">
<title>NgxAmapComponent&#45;&gt;NgxAmapModule</title>
<path fill="none" stroke="#000000" d="M1510.2996,-122.2222C1510.2996,-140.8285 1510.2996,-167 1510.2996,-167 1510.2996,-167 946.9174,-167 946.9174,-167"/>
<polygon fill="#000000" stroke="#000000" points="946.9174,-163.5001 936.9174,-167 946.9174,-170.5001 946.9174,-163.5001"/>
</g>
<!-- AmapMarkerDirective -->
<g id="node2" class="node">
<title>AmapMarkerDirective</title>
<polygon fill="#ffffb3" stroke="#000000" points="1485.9904,-122 1342.0096,-122 1342.0096,-86 1485.9904,-86 1485.9904,-122"/>
<text text-anchor="middle" x="1414" y="-99.8" font-family="Times,serif" font-size="14.00" fill="#000000">AmapMarkerDirective</text>
</g>
<!-- AmapMarkerDirective&#45;&gt;NgxAmapModule -->
<g id="edge2" class="edge">
<title>AmapMarkerDirective&#45;&gt;NgxAmapModule</title>
<path fill="none" stroke="#000000" d="M1346.8802,-122.0225C1346.8802,-139.3734 1346.8802,-163 1346.8802,-163 1346.8802,-163 946.9092,-163 946.9092,-163"/>
<polygon fill="#000000" stroke="#000000" points="946.9093,-159.5001 936.9092,-163 946.9092,-166.5001 946.9093,-159.5001"/>
</g>
<!-- AmapInfoWindowComponent -->
<g id="node3" class="node">
<title>AmapInfoWindowComponent</title>
<polygon fill="#ffffb3" stroke="#000000" points="1324.5772,-122 1137.4228,-122 1137.4228,-86 1324.5772,-86 1324.5772,-122"/>
<text text-anchor="middle" x="1231" y="-99.8" font-family="Times,serif" font-size="14.00" fill="#000000">AmapInfoWindowComponent</text>
</g>
<!-- AmapInfoWindowComponent&#45;&gt;NgxAmapModule -->
<g id="edge3" class="edge">
<title>AmapInfoWindowComponent&#45;&gt;NgxAmapModule</title>
<path fill="none" stroke="#000000" d="M1263.9295,-122.0091C1263.9295,-138.0494 1263.9295,-159 1263.9295,-159 1263.9295,-159 947.0345,-159 947.0345,-159"/>
<polygon fill="#000000" stroke="#000000" points="947.0345,-155.5001 937.0345,-159 947.0345,-162.5001 947.0345,-155.5001"/>
</g>
<!-- AmapPolylineDirective -->
<g id="node4" class="node">
<title>AmapPolylineDirective</title>
<polygon fill="#ffffb3" stroke="#000000" points="1119.4636,-122 970.5364,-122 970.5364,-86 1119.4636,-86 1119.4636,-122"/>
<text text-anchor="middle" x="1045" y="-99.8" font-family="Times,serif" font-size="14.00" fill="#000000">AmapPolylineDirective</text>
</g>
<!-- AmapPolylineDirective&#45;&gt;NgxAmapModule -->
<g id="edge4" class="edge">
<title>AmapPolylineDirective&#45;&gt;NgxAmapModule</title>
<path fill="none" stroke="#000000" d="M1070.2439,-122.1243C1070.2439,-136.7832 1070.2439,-155 1070.2439,-155 1070.2439,-155 946.986,-155 946.986,-155"/>
<polygon fill="#000000" stroke="#000000" points="946.986,-151.5001 936.986,-155 946.986,-158.5001 946.986,-151.5001"/>
</g>
<!-- AmapToolBarDirective -->
<g id="node5" class="node">
<title>AmapToolBarDirective</title>
<polygon fill="#ffffb3" stroke="#000000" points="952.4496,-122 803.5504,-122 803.5504,-86 952.4496,-86 952.4496,-122"/>
<text text-anchor="middle" x="878" y="-99.8" font-family="Times,serif" font-size="14.00" fill="#000000">AmapToolBarDirective</text>
</g>
<!-- AmapToolBarDirective&#45;&gt;NgxAmapModule -->
<g id="edge5" class="edge">
<title>AmapToolBarDirective&#45;&gt;NgxAmapModule</title>
<path fill="none" stroke="#000000" d="M878,-122.1061C878,-122.1061 878,-140.991 878,-140.991"/>
<polygon fill="#000000" stroke="#000000" points="874.5001,-140.9909 878,-150.991 881.5001,-140.991 874.5001,-140.9909"/>
</g>
<!-- AmapMarkerClustererDirective -->
<g id="node6" class="node">
<title>AmapMarkerClustererDirective</title>
<polygon fill="#ffffb3" stroke="#000000" points="785.3025,-122 590.6975,-122 590.6975,-86 785.3025,-86 785.3025,-122"/>
<text text-anchor="middle" x="688" y="-99.8" font-family="Times,serif" font-size="14.00" fill="#000000">AmapMarkerClustererDirective</text>
</g>
<!-- AmapMarkerClustererDirective&#45;&gt;NgxAmapModule -->
<g id="edge6" class="edge">
<title>AmapMarkerClustererDirective&#45;&gt;NgxAmapModule</title>
<path fill="none" stroke="#000000" d="M719.6337,-122.1243C719.6337,-136.7832 719.6337,-155 719.6337,-155 719.6337,-155 809.0302,-155 809.0302,-155"/>
<polygon fill="#000000" stroke="#000000" points="809.0303,-158.5001 819.0302,-155 809.0302,-151.5001 809.0303,-158.5001"/>
</g>
<!-- AmapAutocompleteDirective -->
<g id="node7" class="node">
<title>AmapAutocompleteDirective</title>
<polygon fill="#ffffb3" stroke="#000000" points="572.6078,-122 391.3922,-122 391.3922,-86 572.6078,-86 572.6078,-122"/>
<text text-anchor="middle" x="482" y="-99.8" font-family="Times,serif" font-size="14.00" fill="#000000">AmapAutocompleteDirective</text>
</g>
<!-- AmapAutocompleteDirective&#45;&gt;NgxAmapModule -->
<g id="edge7" class="edge">
<title>AmapAutocompleteDirective&#45;&gt;NgxAmapModule</title>
<path fill="none" stroke="#000000" d="M508.7679,-122.0091C508.7679,-138.0494 508.7679,-159 508.7679,-159 508.7679,-159 809.0858,-159 809.0858,-159"/>
<polygon fill="#000000" stroke="#000000" points="809.0858,-162.5001 819.0858,-159 809.0858,-155.5001 809.0858,-162.5001"/>
</g>
<!-- AmapCircleDirective -->
<g id="node8" class="node">
<title>AmapCircleDirective</title>
<polygon fill="#ffffb3" stroke="#000000" points="373.0031,-122 236.9969,-122 236.9969,-86 373.0031,-86 373.0031,-122"/>
<text text-anchor="middle" x="305" y="-99.8" font-family="Times,serif" font-size="14.00" fill="#000000">AmapCircleDirective</text>
</g>
<!-- AmapCircleDirective&#45;&gt;NgxAmapModule -->
<g id="edge8" class="edge">
<title>AmapCircleDirective&#45;&gt;NgxAmapModule</title>
<path fill="none" stroke="#000000" d="M368.6261,-122.0225C368.6261,-139.3734 368.6261,-163 368.6261,-163 368.6261,-163 809.0707,-163 809.0707,-163"/>
<polygon fill="#000000" stroke="#000000" points="809.0708,-166.5001 819.0707,-163 809.0707,-159.5001 809.0708,-166.5001"/>
</g>
<!-- AmapCircleMarkerDirective -->
<g id="node9" class="node">
<title>AmapCircleMarkerDirective</title>
<polygon fill="#ffffb3" stroke="#000000" points="218.6975,-122 41.3025,-122 41.3025,-86 218.6975,-86 218.6975,-122"/>
<text text-anchor="middle" x="130" y="-99.8" font-family="Times,serif" font-size="14.00" fill="#000000">AmapCircleMarkerDirective</text>
</g>
<!-- AmapCircleMarkerDirective&#45;&gt;NgxAmapModule -->
<g id="edge9" class="edge">
<title>AmapCircleMarkerDirective&#45;&gt;NgxAmapModule</title>
<path fill="none" stroke="#000000" d="M212.2236,-122.2222C212.2236,-140.8285 212.2236,-167 212.2236,-167 212.2236,-167 808.9168,-167 808.9168,-167"/>
<polygon fill="#000000" stroke="#000000" points="808.9168,-170.5001 818.9168,-167 808.9168,-163.5001 808.9168,-170.5001"/>
</g>
<!-- NgxAmapComponent  -->
<g id="node11" class="node">
<title>NgxAmapComponent </title>
<polygon fill="#fb8072" stroke="#000000" points="1659.6509,-252 1516.3491,-252 1516.3491,-216 1659.6509,-216 1659.6509,-252"/>
<text text-anchor="middle" x="1588" y="-229.8" font-family="Times,serif" font-size="14.00" fill="#000000">NgxAmapComponent </text>
</g>
<!-- NgxAmapModule&#45;&gt;NgxAmapComponent  -->
<g id="edge10" class="edge">
<title>NgxAmapModule&#45;&gt;NgxAmapComponent </title>
<path fill="none" stroke="#000000" stroke-dasharray="5,2" d="M936.9561,-171C1105.9673,-171 1580.125,-171 1580.125,-171 1580.125,-171 1580.125,-205.7778 1580.125,-205.7778"/>
<polygon fill="#000000" stroke="#000000" points="1576.6251,-205.7778 1580.125,-215.7778 1583.6251,-205.7778 1576.6251,-205.7778"/>
</g>
<!-- AmapMarkerDirective  -->
<g id="node12" class="node">
<title>AmapMarkerDirective </title>
<polygon fill="#fb8072" stroke="#000000" points="1498.4896,-252 1351.5104,-252 1351.5104,-216 1498.4896,-216 1498.4896,-252"/>
<text text-anchor="middle" x="1425" y="-229.8" font-family="Times,serif" font-size="14.00" fill="#000000">AmapMarkerDirective </text>
</g>
<!-- NgxAmapModule&#45;&gt;AmapMarkerDirective  -->
<g id="edge11" class="edge">
<title>NgxAmapModule&#45;&gt;AmapMarkerDirective </title>
<path fill="none" stroke="#000000" stroke-dasharray="5,2" d="M936.8855,-175C1077.0036,-175 1418.625,-175 1418.625,-175 1418.625,-175 1418.625,-205.9775 1418.625,-205.9775"/>
<polygon fill="#000000" stroke="#000000" points="1415.1251,-205.9774 1418.625,-215.9775 1422.1251,-205.9775 1415.1251,-205.9774"/>
</g>
<!-- AmapInfoWindowComponent  -->
<g id="node13" class="node">
<title>AmapInfoWindowComponent </title>
<polygon fill="#fb8072" stroke="#000000" points="1333.0777,-252 1142.9223,-252 1142.9223,-216 1333.0777,-216 1333.0777,-252"/>
<text text-anchor="middle" x="1238" y="-229.8" font-family="Times,serif" font-size="14.00" fill="#000000">AmapInfoWindowComponent </text>
</g>
<!-- NgxAmapModule&#45;&gt;AmapInfoWindowComponent  -->
<g id="edge12" class="edge">
<title>NgxAmapModule&#45;&gt;AmapInfoWindowComponent </title>
<path fill="none" stroke="#000000" stroke-dasharray="5,2" d="M936.9131,-179C1030.6615,-179 1203.3205,-179 1203.3205,-179 1203.3205,-179 1203.3205,-205.9909 1203.3205,-205.9909"/>
<polygon fill="#000000" stroke="#000000" points="1199.8206,-205.9909 1203.3205,-215.9909 1206.8206,-205.991 1199.8206,-205.9909"/>
</g>
<!-- AmapPolylineDirective  -->
<g id="node14" class="node">
<title>AmapPolylineDirective </title>
<polygon fill="#fb8072" stroke="#000000" points="1124.4643,-252 971.5357,-252 971.5357,-216 1124.4643,-216 1124.4643,-252"/>
<text text-anchor="middle" x="1048" y="-229.8" font-family="Times,serif" font-size="14.00" fill="#000000">AmapPolylineDirective </text>
</g>
<!-- NgxAmapModule&#45;&gt;AmapPolylineDirective  -->
<g id="edge13" class="edge">
<title>NgxAmapModule&#45;&gt;AmapPolylineDirective </title>
<path fill="none" stroke="#000000" stroke-dasharray="5,2" d="M936.9917,-183C976.3843,-183 1021.0061,-183 1021.0061,-183 1021.0061,-183 1021.0061,-205.8757 1021.0061,-205.8757"/>
<polygon fill="#000000" stroke="#000000" points="1017.5062,-205.8757 1021.0061,-215.8757 1024.5062,-205.8757 1017.5062,-205.8757"/>
</g>
<!-- AmapToolBarDirective  -->
<g id="node15" class="node">
<title>AmapToolBarDirective </title>
<polygon fill="#fb8072" stroke="#000000" points="954.4503,-252 801.5497,-252 801.5497,-216 954.4503,-216 954.4503,-252"/>
<text text-anchor="middle" x="878" y="-229.8" font-family="Times,serif" font-size="14.00" fill="#000000">AmapToolBarDirective </text>
</g>
<!-- NgxAmapModule&#45;&gt;AmapToolBarDirective  -->
<g id="edge14" class="edge">
<title>NgxAmapModule&#45;&gt;AmapToolBarDirective </title>
<path fill="none" stroke="#000000" stroke-dasharray="5,2" d="M878,-187.1061C878,-187.1061 878,-205.991 878,-205.991"/>
<polygon fill="#000000" stroke="#000000" points="874.5001,-205.9909 878,-215.991 881.5001,-205.991 874.5001,-205.9909"/>
</g>
<!-- AmapMarkerClustererDirective  -->
<g id="node16" class="node">
<title>AmapMarkerClustererDirective </title>
<polygon fill="#fb8072" stroke="#000000" points="784.3026,-252 585.6974,-252 585.6974,-216 784.3026,-216 784.3026,-252"/>
<text text-anchor="middle" x="685" y="-229.8" font-family="Times,serif" font-size="14.00" fill="#000000">AmapMarkerClustererDirective </text>
</g>
<!-- NgxAmapModule&#45;&gt;AmapMarkerClustererDirective  -->
<g id="edge15" class="edge">
<title>NgxAmapModule&#45;&gt;AmapMarkerClustererDirective </title>
<path fill="none" stroke="#000000" stroke-dasharray="5,2" d="M818.8564,-183C752.826,-183 655.1163,-183 655.1163,-183 655.1163,-183 655.1163,-205.8757 655.1163,-205.8757"/>
<polygon fill="#000000" stroke="#000000" points="651.6164,-205.8757 655.1163,-215.8757 658.6164,-205.8757 651.6164,-205.8757"/>
</g>
<!-- AmapAutocompleteDirective  -->
<g id="node17" class="node">
<title>AmapAutocompleteDirective </title>
<polygon fill="#fb8072" stroke="#000000" points="567.6074,-252 382.3926,-252 382.3926,-216 567.6074,-216 567.6074,-252"/>
<text text-anchor="middle" x="475" y="-229.8" font-family="Times,serif" font-size="14.00" fill="#000000">AmapAutocompleteDirective </text>
</g>
<!-- NgxAmapModule&#45;&gt;AmapAutocompleteDirective  -->
<g id="edge16" class="edge">
<title>NgxAmapModule&#45;&gt;AmapAutocompleteDirective </title>
<path fill="none" stroke="#000000" stroke-dasharray="5,2" d="M818.9353,-179C701.5188,-179 449.9821,-179 449.9821,-179 449.9821,-179 449.9821,-205.9909 449.9821,-205.9909"/>
<polygon fill="#000000" stroke="#000000" points="446.4822,-205.9909 449.9821,-215.9909 453.4822,-205.991 446.4822,-205.9909"/>
</g>
<!-- AmapCircleDirective  -->
<g id="node18" class="node">
<title>AmapCircleDirective </title>
<polygon fill="#fb8072" stroke="#000000" points="364.0022,-252 223.9978,-252 223.9978,-216 364.0022,-216 364.0022,-252"/>
<text text-anchor="middle" x="294" y="-229.8" font-family="Times,serif" font-size="14.00" fill="#000000">AmapCircleDirective </text>
</g>
<!-- NgxAmapModule&#45;&gt;AmapCircleDirective  -->
<g id="edge17" class="edge">
<title>NgxAmapModule&#45;&gt;AmapCircleDirective </title>
<path fill="none" stroke="#000000" stroke-dasharray="5,2" d="M818.8985,-175C671.6814,-175 300.375,-175 300.375,-175 300.375,-175 300.375,-205.9775 300.375,-205.9775"/>
<polygon fill="#000000" stroke="#000000" points="296.8751,-205.9774 300.375,-215.9775 303.8751,-205.9775 296.8751,-205.9774"/>
</g>
<!-- AmapCircleMarkerDirective  -->
<g id="node19" class="node">
<title>AmapCircleMarkerDirective </title>
<polygon fill="#fb8072" stroke="#000000" points="205.6973,-252 24.3027,-252 24.3027,-216 205.6973,-216 205.6973,-252"/>
<text text-anchor="middle" x="115" y="-229.8" font-family="Times,serif" font-size="14.00" fill="#000000">AmapCircleMarkerDirective </text>
</g>
<!-- NgxAmapModule&#45;&gt;AmapCircleMarkerDirective  -->
<g id="edge18" class="edge">
<title>NgxAmapModule&#45;&gt;AmapCircleMarkerDirective </title>
<path fill="none" stroke="#000000" stroke-dasharray="5,2" d="M819.1002,-171C641.5005,-171 123.375,-171 123.375,-171 123.375,-171 123.375,-205.7778 123.375,-205.7778"/>
<polygon fill="#000000" stroke="#000000" points="119.8751,-205.7778 123.375,-215.7778 126.8751,-205.7778 119.8751,-205.7778"/>
</g>
</g>
</svg>
